<svg width="187" height="52" viewBox="0 0 187 52" fill="none" xmlns="http://www.w3.org/2000/svg">
<path d="M92.8569 33.9302C92.5369 34.1542 92.2089 34.3142 91.8729 34.4102C91.5369 34.5062 91.2089 34.5542 90.8889 34.5542C90.5369 34.5542 90.2009 34.4902 89.8809 34.3622C89.5609 34.2502 89.2809 34.0902 89.0409 33.8822C88.8009 33.6582 88.6089 33.3942 88.4649 33.0902C88.3369 32.7702 88.2729 32.4182 88.2729 32.0342C88.2729 31.7462 88.3049 31.4662 88.3689 31.1942L90.9849 20.2742L90.7449 20.1062L87.5289 22.3142L86.0169 20.0582L89.4969 17.7062C89.8169 17.4822 90.1449 17.3222 90.4809 17.2262C90.8169 17.1302 91.1449 17.0822 91.4649 17.0822C91.8169 17.0822 92.1529 17.1462 92.4729 17.2742C92.7929 17.3862 93.0729 17.5542 93.3129 17.7782C93.5529 17.9862 93.7369 18.2502 93.8649 18.5702C94.0089 18.8742 94.0809 19.2182 94.0809 19.6022C94.0809 19.8582 94.0489 20.1382 93.9849 20.4422L91.3689 31.3622L91.6089 31.5302L94.8249 29.3222L96.3369 31.5782L92.8569 33.9302ZM102.56 29.2502C102.528 29.3782 102.512 29.5142 102.512 29.6582C102.512 30.2342 102.728 30.7142 103.16 31.0982C103.608 31.4822 104.192 31.6742 104.912 31.6742C105.664 31.6742 106.264 31.5382 106.712 31.2662C107.16 30.9942 107.504 30.6742 107.744 30.3062L110.144 31.8182C109.952 32.1382 109.696 32.4582 109.376 32.7782C109.072 33.0982 108.688 33.3942 108.224 33.6662C107.776 33.9222 107.24 34.1302 106.616 34.2902C106.008 34.4662 105.296 34.5542 104.48 34.5542C103.744 34.5542 103.064 34.4422 102.44 34.2182C101.832 33.9782 101.304 33.6582 100.856 33.2582C100.424 32.8422 100.08 32.3542 99.8242 31.7942C99.5842 31.2182 99.4642 30.5862 99.4642 29.8982C99.4642 28.8102 99.6242 27.7862 99.9442 26.8262C100.28 25.8662 100.76 25.0262 101.384 24.3062C102.008 23.5862 102.776 23.0182 103.688 22.6022C104.6 22.1862 105.648 21.9782 106.832 21.9782C107.664 21.9782 108.384 22.1142 108.992 22.3862C109.616 22.6422 110.128 22.9942 110.528 23.4422C110.928 23.8742 111.224 24.3702 111.416 24.9302C111.624 25.4902 111.728 26.0662 111.728 26.6582C111.728 26.8502 111.712 27.0502 111.68 27.2582C111.664 27.4502 111.624 27.7062 111.56 28.0262L111.296 29.2502H102.56ZM106.352 24.7142C105.6 24.7142 104.944 24.9062 104.384 25.2902C103.84 25.6582 103.432 26.1142 103.16 26.6582H108.776C108.776 26.0502 108.584 25.5782 108.2 25.2422C107.832 24.8902 107.216 24.7142 106.352 24.7142ZM135.119 17.0822L133.631 24.0422H134.063C134.895 22.6662 136.151 21.9782 137.831 21.9782C139.063 21.9782 140.039 22.3942 140.759 23.2262C141.479 24.0582 141.839 25.1622 141.839 26.5382C141.839 27.7702 141.663 28.8822 141.311 29.8742C140.975 30.8662 140.511 31.7142 139.919 32.4182C139.327 33.1062 138.631 33.6342 137.831 34.0022C137.031 34.3702 136.183 34.5542 135.287 34.5542C134.759 34.5542 134.311 34.4982 133.943 34.3862C133.591 34.2742 133.295 34.1222 133.055 33.9302C132.831 33.7382 132.655 33.5222 132.527 33.2822C132.399 33.0262 132.311 32.7622 132.263 32.4902H131.831L131.471 34.2182H128.471L132.071 17.0822H135.119ZM134.903 31.6742C135.479 31.6582 135.999 31.5382 136.463 31.3142C136.927 31.0742 137.327 30.7542 137.663 30.3542C137.999 29.9542 138.255 29.4982 138.431 28.9862C138.607 28.4582 138.695 27.8982 138.695 27.3062C138.695 26.5542 138.471 25.9622 138.023 25.5302C137.591 25.0822 136.999 24.8582 136.247 24.8582C135.687 24.8582 135.183 24.9702 134.735 25.1942C134.303 25.4182 133.927 25.7302 133.607 26.1302C133.287 26.5142 133.039 26.9782 132.863 27.5222C132.703 28.0502 132.623 28.6182 132.623 29.2262C132.623 29.9942 132.823 30.5942 133.223 31.0262C133.623 31.4582 134.183 31.6742 134.903 31.6742ZM154.182 31.3622L154.422 31.5302L155.574 30.7142L157.086 32.9702L155.67 33.9302C155.046 34.3462 154.39 34.5542 153.702 34.5542C153.094 34.5542 152.55 34.3862 152.07 34.0502C151.59 33.7142 151.286 33.2422 151.158 32.6342H150.726C150.582 32.9062 150.414 33.1622 150.222 33.4022C150.03 33.6262 149.79 33.8262 149.502 34.0022C149.23 34.1622 148.902 34.2902 148.518 34.3862C148.15 34.4982 147.71 34.5542 147.198 34.5542C146.574 34.5542 145.998 34.4342 145.47 34.1942C144.942 33.9382 144.478 33.5942 144.078 33.1622C143.694 32.7142 143.39 32.1942 143.166 31.6022C142.942 31.0102 142.83 30.3622 142.83 29.6582C142.83 28.5862 142.974 27.5862 143.262 26.6582C143.55 25.7302 143.966 24.9222 144.51 24.2342C145.054 23.5302 145.718 22.9782 146.502 22.5782C147.302 22.1782 148.198 21.9782 149.19 21.9782C150.07 21.9782 150.766 22.1542 151.278 22.5062C151.79 22.8582 152.134 23.3222 152.31 23.8982H152.742L153.078 22.3142H156.102L154.182 31.3622ZM148.374 31.6742C148.95 31.6742 149.462 31.5622 149.91 31.3382C150.358 31.0982 150.726 30.7862 151.014 30.4022C151.318 30.0182 151.55 29.5702 151.71 29.0582C151.87 28.5302 151.95 27.9782 151.95 27.4022C151.95 26.6502 151.734 26.0422 151.302 25.5782C150.87 25.0982 150.294 24.8582 149.574 24.8582C148.998 24.8582 148.486 24.9782 148.038 25.2182C147.59 25.4422 147.214 25.7462 146.91 26.1302C146.606 26.5142 146.374 26.9702 146.214 27.4982C146.054 28.0102 145.974 28.5542 145.974 29.1302C145.974 29.8022 146.166 30.3942 146.55 30.9062C146.95 31.4182 147.558 31.6742 148.374 31.6742ZM166.477 27.3062C166.541 27.0022 166.573 26.7462 166.573 26.5382C166.573 25.9622 166.405 25.5142 166.069 25.1942C165.733 24.8742 165.277 24.7142 164.701 24.7142C163.981 24.7142 163.365 24.9702 162.853 25.4822C162.341 25.9942 161.997 26.6822 161.821 27.5462L160.405 34.2182H157.381L159.901 22.3142H162.805L162.397 24.2342H162.829C163.213 23.4342 163.717 22.8582 164.341 22.5062C164.981 22.1542 165.685 21.9782 166.453 21.9782C167.461 21.9782 168.261 22.2822 168.853 22.8902C169.461 23.4982 169.765 24.3542 169.765 25.4582C169.765 25.7142 169.749 25.9542 169.717 26.1782C169.685 26.3862 169.645 26.6182 169.597 26.8742L168.637 31.3622L168.877 31.5302L169.909 30.8102L171.421 33.0662L170.125 33.9302C169.517 34.3462 168.869 34.5542 168.181 34.5542C167.829 34.5542 167.493 34.4902 167.173 34.3622C166.853 34.2502 166.573 34.0902 166.333 33.8822C166.093 33.6582 165.901 33.3942 165.757 33.0902C165.613 32.7702 165.541 32.4102 165.541 32.0102C165.541 31.8022 165.565 31.5622 165.613 31.2902L166.477 27.3062ZM184.893 29.8502C184.445 31.2742 183.645 32.4182 182.493 33.2822C181.357 34.1302 179.829 34.5542 177.909 34.5542C177.205 34.5542 176.541 34.4422 175.917 34.2182C175.293 33.9942 174.749 33.6582 174.285 33.2102C173.821 32.7622 173.453 32.2102 173.181 31.5542C172.925 30.8822 172.797 30.1062 172.797 29.2262C172.797 28.2342 172.965 27.2982 173.301 26.4182C173.653 25.5382 174.157 24.7702 174.813 24.1142C175.469 23.4582 176.261 22.9382 177.189 22.5542C178.117 22.1702 179.173 21.9782 180.357 21.9782C181.221 21.9782 181.981 22.1062 182.637 22.3622C183.293 22.6182 183.837 22.9702 184.269 23.4182C184.701 23.8502 185.029 24.3622 185.253 24.9542C185.477 25.5462 185.589 26.1702 185.589 26.8262L182.517 27.4262C182.517 26.6102 182.309 25.9782 181.893 25.5302C181.493 25.0822 180.837 24.8582 179.925 24.8582C179.349 24.8582 178.813 24.9702 178.317 25.1942C177.837 25.4022 177.413 25.6982 177.045 26.0822C176.693 26.4502 176.413 26.8902 176.205 27.4022C176.013 27.8982 175.917 28.4342 175.917 29.0102C175.917 29.9222 176.157 30.5942 176.637 31.0262C177.117 31.4582 177.725 31.6742 178.461 31.6742C179.469 31.6742 180.253 31.4502 180.813 31.0022C181.373 30.5542 181.797 29.9222 182.085 29.1062L184.893 29.8502Z" fill="#FCFCFC"/>
<path d="M48.0433 50.3288L78.1289 27.7648C79.5672 26.6865 79.5672 24.529 78.1289 23.4498L48.0433 0.886703C46.5393 -0.241274 44.4873 -0.298028 42.924 0.744819L20.4913 15.7003C19.663 16.2527 18.5377 15.9539 18.0925 15.0636L14.9551 8.78874C14.6749 8.2283 14.1012 7.87359 13.4742 7.87359L1.65795 7.87359C0.427109 7.87359 -0.37276 9.16917 0.17704 10.2697L7.47696 24.8686C7.71018 25.3351 7.71018 25.8831 7.47696 26.3495L0.177038 40.9485C-0.373648 42.049 0.427108 43.3446 1.65795 43.3446L13.4742 43.3446C14.1012 43.3446 14.6749 42.9898 14.9551 42.4294L18.0925 36.1546C18.5377 35.2643 19.663 34.9654 20.4913 35.5179L42.924 50.4733C44.4882 51.5162 46.5402 51.4594 48.0433 50.3315L48.0433 50.3288ZM58.8416 25.8387C58.7076 23.2077 60.8696 21.0466 63.5007 21.1796C65.7531 21.294 67.5834 23.1243 67.6978 25.3767C67.8317 28.0078 65.6697 30.1689 63.0387 30.0359C60.7862 29.9215 58.9559 28.0912 58.8416 25.8387Z" fill="#FCFCFC"/>
</svg>
