<svg width="67" height="44" viewBox="0 0 67 44" fill="none" xmlns="http://www.w3.org/2000/svg">
<path d="M40.8657 42.3567L65.937 23.5534C67.1356 22.6548 67.1356 20.8568 65.937 19.9575L40.8657 1.15493C39.6124 0.214954 37.9024 0.167659 36.5995 1.0367L17.9056 13.4996C17.2154 13.96 16.2776 13.7109 15.9067 12.969L13.2922 7.73997C13.0587 7.27294 12.5805 6.97734 12.0581 6.97734L2.21119 6.97734C1.18549 6.97734 0.518933 8.05699 0.977099 8.97406L7.06037 21.1399C7.25472 21.5286 7.25472 21.9853 7.06037 22.374L0.977098 34.5398C0.518193 35.4568 1.18549 36.5365 2.21119 36.5365L12.0581 36.5365C12.5805 36.5365 13.0587 36.2409 13.2922 35.7739L15.9067 30.5448C16.2776 29.8029 17.2154 29.5539 17.9056 30.0143L36.5995 42.4771C37.9031 43.3462 39.6131 43.2989 40.8657 42.3589L40.8657 42.3567ZM49.8642 21.9483C49.7526 19.7558 51.5542 17.9549 53.7468 18.0657C55.6238 18.161 57.149 19.6863 57.2444 21.5633C57.356 23.7559 55.5543 25.5567 53.3618 25.4459C51.4848 25.3506 49.9595 23.8253 49.8642 21.9483Z" fill="#FCFCFC"/>
</svg>
