<svg xmlns="http://www.w3.org/2000/svg" version="1.1" xmlns:xlink="http://www.w3.org/1999/xlink" width="129" height="129"><svg width="129" height="129" viewBox="0 0 129 129" fill="none" xmlns="http://www.w3.org/2000/svg">
<rect x="0.5" y="0.5" width="128" height="128" rx="28.562" fill="#012FDB"></rect>
<path d="M73.5375 90.7652L105.364 66.8959C106.885 65.7552 106.885 63.4728 105.364 62.3312L73.5375 38.4628C71.9466 37.2696 69.7759 37.2095 68.122 38.3127L44.3916 54.1333C43.5154 54.7178 42.325 54.4016 41.8541 53.4598L38.5352 46.822C38.2387 46.2291 37.6318 45.8539 36.9686 45.8539L24.4687 45.8539C23.1667 45.8539 22.3205 47.2244 22.9021 48.3886L30.6244 63.8321C30.8711 64.3255 30.8711 64.9053 30.6244 65.3987L22.9021 80.8422C22.3196 82.0064 23.1667 83.3769 24.4687 83.3769L36.9686 83.3769C37.6318 83.3769 38.2387 83.0017 38.5352 82.4088L41.8541 75.771C42.325 74.8291 43.5154 74.513 44.3916 75.0974L68.122 90.9181C69.7768 92.0213 71.9475 91.9612 73.5375 90.768L73.5375 90.7652ZM84.9605 64.8584C84.8188 62.0751 87.1058 59.789 89.8891 59.9297C92.2718 60.0507 94.208 61.9869 94.329 64.3696C94.4707 67.1529 92.1836 69.439 89.4004 69.2983C87.0177 69.1772 85.0815 67.2411 84.9605 64.8584Z" fill="#FCFCFC"></path>
</svg><style>@media (prefers-color-scheme: light) { :root { filter: none; } }
@media (prefers-color-scheme: dark) { :root { filter: none; } }
</style></svg>